<svg xmlns="http://www.w3.org/2000/svg" width="448.001" height="512" viewBox="0 0 448.001 512">
  <path id="bell-solid" d="M224,512a63.989,63.989,0,0,0,63.97-64H160.03A63.989,63.989,0,0,0,224,512ZM439.39,362.29C420.07,341.53,383.92,310.3,383.92,208c0-77.7-54.48-139.9-127.94-155.16V32a31.98,31.98,0,1,0-63.96,0V52.84C118.56,68.1,64.08,130.3,64.08,208c0,102.3-36.15,133.53-55.47,154.29A31.244,31.244,0,0,0,0,384c.11,16.4,12.98,32,32.1,32H415.9c19.12,0,32-15.6,32.1-32A31.227,31.227,0,0,0,439.39,362.29Z" transform="translate(0.001)" fill="#4e4e4e"/>
</svg>
