<svg xmlns="http://www.w3.org/2000/svg" width="512" height="448" viewBox="0 0 512 448">
  <path id="th-solid" d="M149.333,56v80a24,24,0,0,1-24,24H24A24,24,0,0,1,0,136V56A24,24,0,0,1,24,32H125.333a24,24,0,0,1,24,24ZM330.667,296V216a24,24,0,0,0-24-24H205.333a24,24,0,0,0-24,24v80a24,24,0,0,0,24,24H306.666A24,24,0,0,0,330.667,296Zm32-240v80a24,24,0,0,0,24,24H488a24,24,0,0,0,24-24V56a24,24,0,0,0-24-24H386.667A24,24,0,0,0,362.667,56Zm-32,80V56a24,24,0,0,0-24-24H205.333a24,24,0,0,0-24,24v80a24,24,0,0,0,24,24H306.666A24,24,0,0,0,330.667,136ZM125.333,192H24A24,24,0,0,0,0,216v80a24,24,0,0,0,24,24H125.333a24,24,0,0,0,24-24V216a24,24,0,0,0-24-24ZM0,376v80a24,24,0,0,0,24,24H125.333a24,24,0,0,0,24-24V376a24,24,0,0,0-24-24H24A24,24,0,0,0,0,376Zm386.667-56H488a24,24,0,0,0,24-24V216a24,24,0,0,0-24-24H386.667a24,24,0,0,0-24,24v80A24,24,0,0,0,386.667,320Zm0,160H488a24,24,0,0,0,24-24V376a24,24,0,0,0-24-24H386.667a24,24,0,0,0-24,24v80A24,24,0,0,0,386.667,480ZM181.333,376v80a24,24,0,0,0,24,24H306.666a24,24,0,0,0,24-24V376a24,24,0,0,0-24-24H205.333A24,24,0,0,0,181.333,376Z" transform="translate(0 -32)" fill="#4e4e4e"/>
</svg>
